<svg width="456" height="548" viewBox="0 0 456 548" fill="none" xmlns="http://www.w3.org/2000/svg">
<path d="M455.5 196C455.5 88.0283 367.972 0.5 260 0.5C152.028 0.5 64.5 88.0283 64.5 196V547.5H256C366.181 547.5 455.5 458.181 455.5 348V196Z" stroke="#777777"/>
<path d="M73.22 138H136.4V411H93.5V308.43H73.22C30.32 308.43 9.25999 284.64 9.25999 240.96V205.47C9.25999 161.79 30.32 138 73.22 138ZM73.22 177C59.57 177 52.16 183.24 52.16 202.74V243.69C52.16 263.19 59.57 269.43 73.22 269.43H93.5V177H73.22Z" fill="white"/>
<circle cx="96.5" cy="118.5" r="55" stroke="#FF6969"/>
<path d="M172 151V150H171V151H172ZM191 151V152H192V151H191ZM191 141H192V140H191V141ZM161 141V140H160V141H161ZM161 211H160V212H161V211ZM191 211V212H192V211H191ZM191 201H192V200H191V201ZM172 201H171V202H172V201ZM172 180.5V179.5H171V180.5H172ZM187.1 180.5V181.5H188.1V180.5H187.1ZM187.1 170.5H188.1V169.5H187.1V170.5ZM172 170.5H171V171.5H172V170.5ZM172 152H191V150H172V152ZM192 151V141H190V151H192ZM191 140H161V142H191V140ZM160 141V211H162V141H160ZM161 212H191V210H161V212ZM192 211V201H190V211H192ZM191 200H172V202H191V200ZM173 201V180.5H171V201H173ZM172 181.5H187.1V179.5H172V181.5ZM188.1 180.5V170.5H186.1V180.5H188.1ZM187.1 169.5H172V171.5H187.1V169.5ZM173 170.5V151H171V170.5H173ZM222.916 211L221.983 211.358L222.229 212H222.916V211ZM234.216 211V212H235.686L235.147 210.633L234.216 211ZM218.916 172.2L218.019 171.76L217.824 172.156L217.986 172.567L218.916 172.2ZM234.216 141L235.114 141.44L235.821 140H234.216V141ZM223.216 141V140H222.583L222.312 140.573L223.216 141ZM208.816 171.5H207.816L209.721 171.927L208.816 171.5ZM208.816 141H209.816V140H208.816V141ZM197.816 141V140H196.816V141H197.816ZM197.816 211H196.816V212H197.816V211ZM208.816 211V212H209.816V211H208.816ZM208.816 189.5L207.933 189.031L207.816 189.251V189.5H208.816ZM212.216 183.1L213.15 182.742L212.364 180.691L211.333 182.631L212.216 183.1ZM222.916 212H234.216V210H222.916V212ZM235.147 210.633L219.847 171.833L217.986 172.567L233.286 211.367L235.147 210.633ZM219.814 172.64L235.114 141.44L233.319 140.56L218.019 171.76L219.814 172.64ZM234.216 140H223.216V142H234.216V140ZM222.312 140.573L207.912 171.073L209.721 171.927L224.121 141.427L222.312 140.573ZM209.816 171.5V141H207.816V171.5H209.816ZM208.816 140H197.816V142H208.816V140ZM196.816 141V211H198.816V141H196.816ZM197.816 212H208.816V210H197.816V212ZM209.816 211V189.5H207.816V211H209.816ZM209.7 189.969L213.1 183.569L211.333 182.631L207.933 189.031L209.7 189.969ZM211.283 183.458L221.983 211.358L223.85 210.642L213.15 182.742L211.283 183.458ZM236.123 211.1H235.123V212.1H236.123V211.1ZM253.823 193.3L254.822 193.331L254.822 193.328L253.823 193.3ZM255.023 151V150H254.051L254.023 150.972L255.023 151ZM264.623 151H265.623V150H264.623V151ZM264.623 211H263.623V212H264.623V211ZM275.823 211V212H276.823V211H275.823ZM275.823 141H276.823V140H275.823V141ZM244.723 141V140H243.756L243.723 140.966L244.723 141ZM242.923 193.9L241.923 193.866L241.923 193.869L242.923 193.9ZM236.123 201.1V200.1H235.123V201.1H236.123ZM236.123 212.1H237.823V210.1H236.123V212.1ZM237.823 212.1C243.456 212.1 247.694 210.82 250.54 207.67C253.356 204.554 254.62 199.807 254.822 193.331L252.823 193.269C252.626 199.593 251.39 203.746 249.056 206.33C246.752 208.88 243.189 210.1 237.823 210.1V212.1ZM254.822 193.328L256.022 151.028L254.023 150.972L252.823 193.272L254.822 193.328ZM255.023 152H264.623V150H255.023V152ZM263.623 151V211H265.623V151H263.623ZM264.623 212H275.823V210H264.623V212ZM276.823 211V141H274.823V211H276.823ZM275.823 140H244.723V142H275.823V140ZM243.723 140.966L241.923 193.866L243.922 193.934L245.722 141.034L243.723 140.966ZM241.923 193.869C241.822 197.144 241.355 198.535 240.638 199.209C240.293 199.533 239.815 199.763 239.075 199.908C238.32 200.055 237.365 200.1 236.123 200.1V202.1C237.381 202.1 238.5 202.057 239.458 201.871C240.43 201.681 241.302 201.33 242.008 200.666C243.391 199.365 243.823 197.156 243.922 193.931L241.923 193.869ZM235.123 201.1V211.1H237.123V201.1H235.123ZM308.642 141L309.63 140.842L309.495 140H308.642V141ZM292.542 141V140H291.689L291.555 140.842L292.542 141ZM281.342 211L280.355 210.842L280.169 212H281.342V211ZM291.442 211V212H292.304L292.431 211.148L291.442 211ZM293.342 198.3V197.3H292.481L292.353 198.152L293.342 198.3ZM306.842 198.3L307.831 198.152L307.704 197.3H306.842V198.3ZM308.742 211L307.753 211.148L307.881 212H308.742V211ZM319.842 211V212H321.015L320.83 210.842L319.842 211ZM300.042 153.4L301.031 153.252H299.053L300.042 153.4ZM305.342 188.8V189.8H306.503L306.331 188.652L305.342 188.8ZM294.742 188.8L293.753 188.652L293.581 189.8H294.742V188.8ZM308.642 140H292.542V142H308.642V140ZM291.555 140.842L280.355 210.842L282.33 211.158L293.53 141.158L291.555 140.842ZM281.342 212H291.442V210H281.342V212ZM292.431 211.148L294.331 198.448L292.353 198.152L290.453 210.852L292.431 211.148ZM293.342 199.3H306.842V197.3H293.342V199.3ZM305.853 198.448L307.753 211.148L309.731 210.852L307.831 198.152L305.853 198.448ZM308.742 212H319.842V210H308.742V212ZM320.83 210.842L309.63 140.842L307.655 141.158L318.855 211.158L320.83 210.842ZM299.053 153.548L304.353 188.948L306.331 188.652L301.031 153.252L299.053 153.548ZM305.342 187.8H294.742V189.8H305.342V187.8ZM295.731 188.948L301.031 153.548L299.053 153.252L293.753 188.652L295.731 188.948ZM340.165 141L341.152 140.839L341.015 140H340.165V141ZM324.865 141V140H323.865V141H324.865ZM324.865 211H323.865V212H324.865V211ZM334.465 211V212H335.465V211H334.465ZM334.465 161.5L335.451 161.337L333.465 161.5H334.465ZM342.665 211L341.678 211.163L341.817 212H342.665V211ZM353.065 211V212H353.925L354.054 211.15L353.065 211ZM360.665 160.8H361.665L359.676 160.65L360.665 160.8ZM360.665 211H359.665V212H360.665V211ZM371.065 211V212H372.065V211H371.065ZM371.065 141H372.065V140H371.065V141ZM355.765 141V140H354.904L354.776 140.851L355.765 141ZM348.265 190.7L347.278 190.861L349.254 190.849L348.265 190.7ZM340.165 140H324.865V142H340.165V140ZM323.865 141V211H325.865V141H323.865ZM324.865 212H334.465V210H324.865V212ZM335.465 211V161.5H333.465V211H335.465ZM333.478 161.663L341.678 211.163L343.651 210.837L335.451 161.337L333.478 161.663ZM342.665 212H353.065V210H342.665V212ZM354.054 211.15L361.654 160.95L359.676 160.65L352.076 210.85L354.054 211.15ZM359.665 160.8V211H361.665V160.8H359.665ZM360.665 212H371.065V210H360.665V212ZM372.065 211V141H370.065V211H372.065ZM371.065 140H355.765V142H371.065V140ZM354.776 140.851L347.276 190.551L349.254 190.849L356.754 141.149L354.776 140.851ZM349.252 190.539L341.152 140.839L339.178 141.161L347.278 190.861L349.252 190.539ZM403.466 141L404.454 140.842L404.319 140H403.466V141ZM387.366 141V140H386.514L386.379 140.842L387.366 141ZM376.166 211L375.179 210.842L374.994 212H376.166V211ZM386.266 211V212H387.128L387.255 211.148L386.266 211ZM388.166 198.3V197.3H387.305L387.177 198.152L388.166 198.3ZM401.666 198.3L402.655 198.152L402.528 197.3H401.666V198.3ZM403.566 211L402.577 211.148L402.705 212H403.566V211ZM414.666 211V212H415.839L415.654 210.842L414.666 211ZM394.866 153.4L395.855 153.252H393.877L394.866 153.4ZM400.166 188.8V189.8H401.327L401.155 188.652L400.166 188.8ZM389.566 188.8L388.577 188.652L388.406 189.8H389.566V188.8ZM403.466 140H387.366V142H403.466V140ZM386.379 140.842L375.179 210.842L377.154 211.158L388.354 141.158L386.379 140.842ZM376.166 212H386.266V210H376.166V212ZM387.255 211.148L389.155 198.448L387.177 198.152L385.277 210.852L387.255 211.148ZM388.166 199.3H401.666V197.3H388.166V199.3ZM400.677 198.448L402.577 211.148L404.555 210.852L402.655 198.152L400.677 198.448ZM403.566 212H414.666V210H403.566V212ZM415.654 210.842L404.454 140.842L402.479 141.158L413.679 211.158L415.654 210.842ZM393.877 153.548L399.177 188.948L401.155 188.652L395.855 153.252L393.877 153.548ZM400.166 187.8H389.566V189.8H400.166V187.8ZM390.555 188.948L395.855 153.548L393.877 153.252L388.577 188.652L390.555 188.948ZM197.2 241L198.175 241.22L198.451 240H197.2V241ZM185.7 241V240H184.887L184.721 240.796L185.7 241ZM180.7 265L179.721 264.796L179.716 264.819L179.712 264.842L180.7 265ZM178.1 281.3L177.121 281.503L179.088 281.458L178.1 281.3ZM174.7 264.9L175.679 264.697L175.675 264.677L175.67 264.657L174.7 264.9ZM168.7 241L169.67 240.757L169.48 240H168.7V241ZM157.8 241V240H156.48L156.837 241.271L157.8 241ZM173 295L173.986 295.164L174.023 294.944L173.963 294.729L173 295ZM172.9 295.6L173.885 295.774L173.886 295.764L172.9 295.6ZM163.2 301.3L163.271 300.303L162.2 300.226V301.3H163.2ZM163.2 311.1H162.2V312.037L163.135 312.098L163.2 311.1ZM185.4 293.2L184.425 292.98L184.423 292.989L184.421 292.998L185.4 293.2ZM197.2 240H185.7V242H197.2V240ZM184.721 240.796L179.721 264.796L181.679 265.204L186.679 241.204L184.721 240.796ZM179.712 264.842L177.112 281.142L179.088 281.458L181.688 265.158L179.712 264.842ZM179.079 281.097L175.679 264.697L173.721 265.103L177.121 281.503L179.079 281.097ZM175.67 264.657L169.67 240.757L167.73 241.243L173.73 265.143L175.67 264.657ZM168.7 240H157.8V242H168.7V240ZM156.837 241.271L172.037 295.271L173.963 294.729L158.763 240.729L156.837 241.271ZM172.014 294.836L171.914 295.436L173.886 295.764L173.986 295.164L172.014 294.836ZM171.915 295.426C171.501 297.771 170.608 298.972 169.352 299.625C168.002 300.326 166.046 300.501 163.271 300.303L163.129 302.297C165.954 302.499 168.398 302.374 170.273 301.4C172.242 300.378 173.399 298.529 173.885 295.774L171.915 295.426ZM162.2 301.3V311.1H164.2V301.3H162.2ZM163.135 312.098C170.907 312.606 176.135 311.278 179.737 307.988C183.3 304.734 185.074 299.73 186.379 293.402L184.421 292.998C183.126 299.27 181.45 303.716 178.388 306.512C175.365 309.272 170.793 310.594 163.265 310.102L163.135 312.098ZM186.375 293.42L198.175 241.22L196.225 240.78L184.425 292.98L186.375 293.42ZM224.22 241V240H223.22V241H224.22ZM212.12 241H213.12V240H212.12V241ZM201.12 241V240H200.12V241H201.12ZM224.22 282.8H225.22V280.242L223.486 282.122L224.22 282.8ZM224.22 311H223.22V312H224.22V311ZM235.22 311V312H236.22V311H235.22ZM235.22 241H236.22V240H235.22V241ZM223.22 241V269.4H225.22V241H223.22ZM223.22 269.4C223.22 271.609 222.702 273.155 221.907 274.131C221.136 275.079 220.013 275.6 218.52 275.6V277.6C220.528 277.6 222.255 276.871 223.458 275.394C224.639 273.945 225.22 271.891 225.22 269.4H223.22ZM218.52 275.6C216.977 275.6 215.647 275.117 214.707 274.198C213.774 273.285 213.12 271.838 213.12 269.7H211.12C211.12 272.262 211.916 274.265 213.308 275.627C214.694 276.983 216.564 277.6 218.52 277.6V275.6ZM213.12 269.7V241H211.12V269.7H213.12ZM212.12 240H201.12V242H212.12V240ZM200.12 241V270.6H202.12V241H200.12ZM200.12 270.6C200.12 275.549 201.331 279.824 203.82 282.881C206.332 285.967 210.057 287.7 214.82 287.7V285.7C210.583 285.7 207.458 284.183 205.371 281.619C203.26 279.026 202.12 275.251 202.12 270.6H200.12ZM214.82 287.7C218.035 287.7 222.326 286.327 224.955 283.478L223.486 282.122C221.315 284.473 217.606 285.7 214.82 285.7V287.7ZM223.22 282.8V311H225.22V282.8H223.22ZM224.22 312H235.22V310H224.22V312ZM236.22 311V241H234.22V311H236.22ZM235.22 240H224.22V242H235.22V240ZM254.324 281V280H253.324V281H254.324ZM266.824 281H267.824V280H266.824V281ZM266.824 311H265.824V312H266.824V311ZM278.024 311V312H279.024V311H278.024ZM278.024 241H279.024V240H278.024V241ZM266.824 241V240H265.824V241H266.824ZM266.824 271V272H267.824V271H266.824ZM254.324 271H253.324V272H254.324V271ZM254.324 241H255.324V240H254.324V241ZM243.324 241V240H242.324V241H243.324ZM243.324 311H242.324V312H243.324V311ZM254.324 311V312H255.324V311H254.324ZM254.324 282H266.824V280H254.324V282ZM265.824 281V311H267.824V281H265.824ZM266.824 312H278.024V310H266.824V312ZM279.024 311V241H277.024V311H279.024ZM278.024 240H266.824V242H278.024V240ZM265.824 241V271H267.824V241H265.824ZM266.824 270H254.324V272H266.824V270ZM255.324 271V241H253.324V271H255.324ZM254.324 240H243.324V242H254.324V240ZM242.324 241V311H244.324V241H242.324ZM243.324 312H254.324V310H243.324V312ZM255.324 311V281H253.324V311H255.324ZM297.1 257.1C297.1 254.724 297.626 253.285 298.382 252.443C299.118 251.622 300.227 251.2 301.8 251.2V249.2C299.873 249.2 298.132 249.728 296.893 251.107C295.674 252.465 295.1 254.476 295.1 257.1H297.1ZM301.8 251.2C303.373 251.2 304.482 251.622 305.218 252.443C305.974 253.285 306.5 254.724 306.5 257.1H308.5C308.5 254.476 307.926 252.465 306.707 251.107C305.468 249.728 303.727 249.2 301.8 249.2V251.2ZM306.5 257.1V294.9H308.5V257.1H306.5ZM306.5 294.9C306.5 297.276 305.974 298.715 305.218 299.557C304.482 300.378 303.373 300.8 301.8 300.8V302.8C303.727 302.8 305.468 302.272 306.707 300.893C307.926 299.535 308.5 297.524 308.5 294.9H306.5ZM301.8 300.8C300.227 300.8 299.118 300.378 298.382 299.557C297.626 298.715 297.1 297.276 297.1 294.9H295.1C295.1 297.524 295.674 299.535 296.893 300.893C298.132 302.272 299.873 302.8 301.8 302.8V300.8ZM297.1 294.9V257.1H295.1V294.9H297.1ZM284.1 294.2C284.1 299.967 285.62 304.645 288.672 307.886C291.733 311.136 296.201 312.8 301.8 312.8V310.8C296.599 310.8 292.717 309.264 290.128 306.514C287.53 303.755 286.1 299.633 286.1 294.2H284.1ZM301.8 312.8C307.399 312.8 311.867 311.136 314.928 307.886C317.98 304.645 319.5 299.967 319.5 294.2H317.5C317.5 299.633 316.07 303.755 313.472 306.514C310.883 309.264 307.001 310.8 301.8 310.8V312.8ZM319.5 294.2V257.8H317.5V294.2H319.5ZM319.5 257.8C319.5 252.033 317.98 247.355 314.928 244.114C311.867 240.864 307.399 239.2 301.8 239.2V241.2C307.001 241.2 310.883 242.736 313.472 245.486C316.07 248.245 317.5 252.367 317.5 257.8H319.5ZM301.8 239.2C296.201 239.2 291.733 240.864 288.672 244.114C285.62 247.355 284.1 252.033 284.1 257.8H286.1C286.1 252.367 287.53 248.245 290.128 245.486C292.717 242.736 296.599 241.2 301.8 241.2V239.2ZM284.1 257.8V294.2H286.1V257.8H284.1ZM336.948 311V312H337.702L337.91 311.276L336.948 311ZM325.648 311H324.648V312H325.648V311ZM325.648 241V240H324.648V241H325.648ZM335.448 241H336.448V240H335.448V241ZM335.448 285.3H334.448L336.416 285.551L335.448 285.3ZM339.448 269.9L338.494 269.603L338.487 269.625L338.481 269.649L339.448 269.9ZM348.448 241V240H347.712L347.494 240.703L348.448 241ZM360.548 241H361.548V240H360.548V241ZM360.548 311V312H361.548V311H360.548ZM350.648 311H349.648V312H350.648V311ZM350.648 261.7H351.648L349.681 261.447L350.648 261.7ZM346.148 278.9L347.11 279.176L347.113 279.164L347.116 279.153L346.148 278.9ZM348.248 225.4V224.4H347.326L347.252 225.319L348.248 225.4ZM338.548 225.4L339.545 225.319L339.471 224.4H338.548V225.4ZM331.748 225.4V224.4H330.719L330.749 225.429L331.748 225.4ZM354.948 225.4H355.948V224.4H354.948V225.4ZM336.948 310H325.648V312H336.948V310ZM326.648 311V241H324.648V311H326.648ZM325.648 242H335.448V240H325.648V242ZM334.448 241V285.3H336.448V241H334.448ZM336.416 285.551L340.416 270.151L338.481 269.649L334.481 285.049L336.416 285.551ZM340.403 270.197L349.403 241.297L347.494 240.703L338.494 269.603L340.403 270.197ZM348.448 242H360.548V240H348.448V242ZM359.548 241V311H361.548V241H359.548ZM360.548 310H350.648V312H360.548V310ZM351.648 311V261.7H349.648V311H351.648ZM349.681 261.447L345.181 278.647L347.116 279.153L351.616 261.953L349.681 261.447ZM345.187 278.624L335.987 310.724L337.91 311.276L347.11 279.176L345.187 278.624ZM347.252 225.319C347.112 227.047 346.662 227.875 346.126 228.315C345.566 228.775 344.688 229 343.248 229V231C344.809 231 346.281 230.775 347.395 229.86C348.535 228.925 349.085 227.453 349.245 225.481L347.252 225.319ZM343.248 229C341.862 229 341.078 228.775 340.587 228.339C340.101 227.908 339.688 227.077 339.545 225.319L337.552 225.481C337.709 227.423 338.196 228.892 339.26 229.836C340.319 230.775 341.735 231 343.248 231V229ZM338.548 224.4H331.748V226.4H338.548V224.4ZM330.749 225.429C330.854 228.99 331.853 232.04 333.972 234.2C336.099 236.369 339.213 237.5 343.248 237.5V235.5C339.584 235.5 337.048 234.481 335.4 232.8C333.743 231.11 332.843 228.61 332.748 225.371L330.749 225.429ZM343.248 237.5C347.328 237.5 350.537 236.373 352.726 234.212C354.916 232.05 355.948 228.988 355.948 225.4H353.948C353.948 228.612 353.031 231.1 351.321 232.788C349.61 234.477 346.969 235.5 343.248 235.5V237.5ZM354.948 224.4H348.248V226.4H354.948V224.4ZM185.4 341L186.387 340.842L186.253 340H185.4V341ZM169.3 341V340H168.447L168.313 340.842L169.3 341ZM158.1 411L157.113 410.842L156.927 412H158.1V411ZM168.2 411V412H169.062L169.189 411.148L168.2 411ZM170.1 398.3V397.3H169.238L169.111 398.152L170.1 398.3ZM183.6 398.3L184.589 398.152L184.462 397.3H183.6V398.3ZM185.5 411L184.511 411.148L184.638 412H185.5V411ZM196.6 411V412H197.773L197.587 410.842L196.6 411ZM176.8 353.4L177.789 353.252H175.811L176.8 353.4ZM182.1 388.8V389.8H183.261L183.089 388.652L182.1 388.8ZM171.5 388.8L170.511 388.652L170.339 389.8H171.5V388.8ZM185.4 340H169.3V342H185.4V340ZM168.313 340.842L157.113 410.842L159.087 411.158L170.287 341.158L168.313 340.842ZM158.1 412H168.2V410H158.1V412ZM169.189 411.148L171.089 398.448L169.111 398.152L167.211 410.852L169.189 411.148ZM170.1 399.3H183.6V397.3H170.1V399.3ZM182.611 398.448L184.511 411.148L186.489 410.852L184.589 398.152L182.611 398.448ZM185.5 412H196.6V410H185.5V412ZM197.587 410.842L186.387 340.842L184.413 341.158L195.613 411.158L197.587 410.842ZM175.811 353.548L181.111 388.948L183.089 388.652L177.789 353.252L175.811 353.548ZM182.1 387.8H171.5V389.8H182.1V387.8ZM172.489 388.948L177.789 353.548L175.811 353.252L170.511 388.652L172.489 388.948ZM212.823 368.9H211.823V369.9H212.823V368.9ZM212.823 351V350H211.823V351H212.823ZM232.623 351V352H233.623V351H232.623ZM232.623 341H233.623V340H232.623V341ZM201.823 341V340H200.823V341H201.823ZM201.823 411H200.823V412H201.823V411ZM212.823 401H211.823V402H212.823V401ZM212.823 378.9V377.9H211.823V378.9H212.823ZM219.223 412C224.904 412 229.354 410.421 232.373 407.238C235.384 404.065 236.823 399.454 236.823 393.7H234.823C234.823 399.146 233.461 403.185 230.922 405.862C228.392 408.529 224.541 410 219.223 410V412ZM236.823 393.7V386.2H234.823V393.7H236.823ZM236.823 386.2C236.823 380.446 235.384 375.835 232.373 372.662C229.354 369.479 224.904 367.9 219.223 367.9V369.9C224.541 369.9 228.392 371.371 230.922 374.038C233.461 376.715 234.823 380.754 234.823 386.2H236.823ZM219.223 367.9H212.823V369.9H219.223V367.9ZM213.823 368.9V351H211.823V368.9H213.823ZM212.823 352H232.623V350H212.823V352ZM233.623 351V341H231.623V351H233.623ZM232.623 340H201.823V342H232.623V340ZM200.823 341V411H202.823V341H200.823ZM201.823 412H219.223V410H201.823V412ZM213.823 401V378.9H211.823V401H213.823ZM212.823 379.9H219.223V377.9H212.823V379.9ZM219.223 379.9C220.838 379.9 221.912 380.27 222.606 381.01C223.316 381.766 223.823 383.11 223.823 385.5H225.823C225.823 382.89 225.279 380.934 224.064 379.64C222.834 378.33 221.107 377.9 219.223 377.9V379.9ZM223.823 385.5V394.4H225.823V385.5H223.823ZM223.823 394.4C223.823 396.79 223.316 398.134 222.606 398.89C221.912 399.63 220.838 400 219.223 400V402C221.107 402 222.834 401.57 224.064 400.26C225.279 398.966 225.823 397.01 225.823 394.4H223.823ZM219.223 400H212.823V402H219.223V400ZM254.327 357.1C254.327 354.724 254.852 353.285 255.608 352.443C256.345 351.622 257.454 351.2 259.027 351.2V349.2C257.099 349.2 255.358 349.728 254.12 351.107C252.901 352.465 252.327 354.476 252.327 357.1H254.327ZM259.027 351.2C260.599 351.2 261.708 351.622 262.445 352.443C263.201 353.285 263.727 354.724 263.727 357.1H265.727C265.727 354.476 265.152 352.465 263.933 351.107C262.695 349.728 260.954 349.2 259.027 349.2V351.2ZM263.727 357.1V394.9H265.727V357.1H263.727ZM263.727 394.9C263.727 397.276 263.201 398.715 262.445 399.557C261.708 400.378 260.599 400.8 259.027 400.8V402.8C260.954 402.8 262.695 402.272 263.933 400.893C265.152 399.535 265.727 397.524 265.727 394.9H263.727ZM259.027 400.8C257.454 400.8 256.345 400.378 255.608 399.557C254.852 398.715 254.327 397.276 254.327 394.9H252.327C252.327 397.524 252.901 399.535 254.12 400.893C255.358 402.272 257.099 402.8 259.027 402.8V400.8ZM254.327 394.9V357.1H252.327V394.9H254.327ZM241.327 394.2C241.327 399.967 242.847 404.645 245.899 407.886C248.959 411.136 253.427 412.8 259.027 412.8V410.8C253.826 410.8 249.944 409.264 247.355 406.514C244.756 403.755 243.327 399.633 243.327 394.2H241.327ZM259.027 412.8C264.626 412.8 269.094 411.136 272.155 407.886C275.206 404.645 276.727 399.967 276.727 394.2H274.727C274.727 399.633 273.297 403.755 270.699 406.514C268.109 409.264 264.227 410.8 259.027 410.8V412.8ZM276.727 394.2V357.8H274.727V394.2H276.727ZM276.727 357.8C276.727 352.033 275.206 347.355 272.155 344.114C269.094 340.864 264.626 339.2 259.027 339.2V341.2C264.227 341.2 268.109 342.736 270.699 345.486C273.297 348.245 274.727 352.367 274.727 357.8H276.727ZM259.027 339.2C253.427 339.2 248.959 340.864 245.899 344.114C242.847 347.355 241.327 352.033 241.327 357.8H243.327C243.327 352.367 244.756 348.245 247.355 345.486C249.944 342.736 253.826 341.2 259.027 341.2V339.2ZM241.327 357.8V394.2H243.327V357.8H241.327ZM279.675 351H278.675V352H279.675V351ZM291.175 351H292.175V350H291.175V351ZM291.175 411H290.175V412H291.175V411ZM302.175 411V412H303.175V411H302.175ZM302.175 351V350H301.175V351H302.175ZM313.675 351V352H314.675V351H313.675ZM313.675 341H314.675V340H313.675V341ZM279.675 341V340H278.675V341H279.675ZM279.675 352H291.175V350H279.675V352ZM290.175 351V411H292.175V351H290.175ZM291.175 412H302.175V410H291.175V412ZM303.175 411V351H301.175V411H303.175ZM302.175 352H313.675V350H302.175V352ZM314.675 351V341H312.675V351H314.675ZM313.675 340H279.675V342H313.675V340ZM278.675 341V351H280.675V341H278.675ZM329.52 367.3H328.52V368.3H329.52V367.3ZM329.52 341H330.52V340H329.52V341ZM318.52 341V340H317.52V341H318.52ZM318.52 411H317.52V412H318.52V411ZM329.52 401H328.52V402H329.52V401ZM329.52 377.3V376.3H328.52V377.3H329.52ZM368.42 411V412H369.42V411H368.42ZM368.42 341H369.42V340H368.42V341ZM357.42 341V340H356.42V341H357.42ZM357.42 411H356.42V412H357.42V411ZM334.72 412C340.401 412 344.805 410.42 347.776 407.232C350.735 404.056 352.12 399.445 352.12 393.7H350.12C350.12 399.155 348.804 403.194 346.313 405.868C343.834 408.53 340.038 410 334.72 410V412ZM352.12 393.7V384.6H350.12V393.7H352.12ZM352.12 384.6C352.12 378.855 350.735 374.244 347.776 371.068C344.805 367.88 340.401 366.3 334.72 366.3V368.3C340.038 368.3 343.834 369.77 346.313 372.432C348.804 375.106 350.12 379.145 350.12 384.6H352.12ZM334.72 366.3H329.52V368.3H334.72V366.3ZM330.52 367.3V341H328.52V367.3H330.52ZM329.52 340H318.52V342H329.52V340ZM317.52 341V411H319.52V341H317.52ZM318.52 412H334.72V410H318.52V412ZM330.52 401V377.3H328.52V401H330.52ZM329.52 378.3H334.72V376.3H329.52V378.3ZM334.72 378.3C336.335 378.3 337.344 378.669 337.985 379.39C338.654 380.142 339.12 381.489 339.12 383.9H341.12C341.12 381.311 340.635 379.358 339.479 378.06C338.295 376.73 336.604 376.3 334.72 376.3V378.3ZM339.12 383.9V394.4H341.12V383.9H339.12ZM339.12 394.4C339.12 396.811 338.654 398.158 337.985 398.91C337.344 399.63 336.335 400 334.72 400V402C336.604 402 338.295 401.569 339.479 400.24C340.635 398.942 341.12 396.989 341.12 394.4H339.12ZM334.72 400H329.52V402H334.72V400ZM369.42 411V341H367.42V411H369.42ZM368.42 340H357.42V342H368.42V340ZM356.42 341V411H358.42V341H356.42ZM357.42 412H368.42V410H357.42V412Z" fill="white"/>
</svg>
